<svg width="19" height="28" xmlns="http://www.w3.org/2000/svg"><path d="M18.318 6.778c-.097-.363-.294-.75-.44-1.09C16.136 1.502 12.328 0 9.254 0 5.138 0 .605 2.76 0 8.448V9.61c0 .049.017.485.04.702.34 2.711 2.479 5.593 4.076 8.304 1.72 2.904 3.503 5.761 5.27 8.617 1.09-1.863 2.175-3.752 3.24-5.567.29-.533.627-1.066.917-1.574.194-.339.564-.677.733-.992 1.718-3.147 4.485-6.318 4.485-9.441V8.376c0-.339-.42-1.525-.443-1.598zm-8.989 5.834c-1.21 0-2.534-.605-3.188-2.275-.097-.266-.09-.8-.09-.848v-.75c0-2.13 1.81-3.099 3.382-3.099 1.937 0 3.435 1.55 3.435 3.487 0 1.936-1.602 3.485-3.539 3.485z" fill="#ACB8CE" fill-rule="nonzero"/></svg>