<svg width="15" height="12" xmlns="http://www.w3.org/2000/svg"><g fill="#FF2944"><g transform="translate(4.2 1.2)"><ellipse cx="2.629" cy=".901" rx="1.014" ry="1"/><path d="M2.983 2.233a2.072 2.072 0 0 0-.776.008C.521 2.417-.026 4.151.128 5.474c.067.572 1.081.578 1.014 0-.057-.482-.033-1.21.256-1.727v1.885c0 .023.002.043.003.065 0 .01-.003.019-.003.029 0 1.496-.003 2.991-.073 4.486-.03.664 1.129.661 1.16 0 .054-1.172.067-2.344.07-3.516.055.003.11.003.165 0a81.38 81.38 0 0 0 .07 3.516c.032.661 1.19.664 1.16 0-.07-1.495-.072-2.99-.072-4.486a.505.505 0 0 0-.018-.13c-.001-.649-.03-1.299-.02-1.948.344.52.376 1.312.316 1.825-.068.578.946.572 1.013 0 .159-1.35-.415-3.13-2.186-3.24z"/></g><g transform="translate(9.6)"><ellipse cx="2.592" cy=".984" rx="1.08" ry="1"/><path d="M3.054 2.593a2.102 2.102 0 0 0-.823.01C.443 2.798-.137 4.723.026 6.19c.072.635 1.147.642 1.075 0-.06-.535-.034-1.342.272-1.916v2.092c0 .025.003.048.004.072-.001.011-.004.02-.004.032 0 1.66-.003 3.32-.077 4.978-.032.737 1.197.735 1.23 0 .057-1.3.072-2.6.075-3.901.058.003.116.003.175 0 .003 1.301.017 2.602.075 3.901.032.735 1.262.737 1.229 0-.074-1.659-.077-3.318-.077-4.978a.585.585 0 0 0-.018-.143c-.002-.72-.032-1.442-.022-2.162.366.576.399 1.455.336 2.025-.073.64 1.003.634 1.074 0 .168-1.498-.44-3.473-2.319-3.597z"/></g><g transform="translate(0 3.6)"><ellipse cx="2.1" cy=".7" rx="1" ry="1"/><path d="M2.375 1.825a1.816 1.816 0 0 0-.64.007C.346 1.968-.106 3.313.022 4.339c.055.444.891.448.836 0C.81 3.965.83 3.401 1.067 3v1.462c0 .018.003.034.004.05 0 .008-.003.015-.003.023 0 1.16-.002 2.32-.06 3.48-.025.515.93.513.956 0a58.6 58.6 0 0 0 .059-2.728c.045.003.09.003.136 0 .003.91.014 1.819.058 2.727.026.514.982.516.956 0a70.842 70.842 0 0 1-.06-3.48.37.37 0 0 0-.014-.1c-.001-.503-.024-1.007-.017-1.51.285.402.31 1.017.261 1.415-.056.448.781.443.836 0 .13-1.047-.343-2.428-1.804-2.514z"/></g></g></svg>