<svg width="361" height="237" xmlns="http://www.w3.org/2000/svg" xmlns:xlink="http://www.w3.org/1999/xlink"><defs><path id="a" d="M0 .346h360.261v236.508H0z"/></defs><g fill="none" fill-rule="evenodd" opacity=".204"><path d="M225.29 29.908c9.493-.462 20.396-2.59 24.307-4.755 3.922-2.162-.667-3.53-10.163-3.06-9.43.486-20.148 2.613-24.034 4.763-3.86 2.135.528 3.523 9.89 3.052m-49.021 84.039c10.246.771 18.815-6.96 18.73-17.414-.104-10.66-9.026-19.461-19.574-19.533-10.106-.067-17.767 8.063-17.413 18.05.365 9.76 8.403 18.17 18.257 18.897m69.783-39.851c-3.9 3.716-7.556 15.573-8.004 26.175-.452 10.308 2.323 15.292 6.145 11.42 3.694-3.832 7.104-14.915 7.722-25.103.595-10.405-1.998-16.127-5.863-12.492M215.27 40.93c9.456-.406 20.338-2.522 24.288-4.674 3.997-2.203-.616-3.623-10.116-3.173-9.4.423-20.13 2.523-24.037 4.69-3.87 2.133.524 3.565 9.865 3.158m-38.265 86.159c-9.873-.968-17.372 5.975-16.991 15.334.312 9.147 8.155 17.77 17.745 19.333 10.016 1.6 18.33-4.867 18.24-14.662-.06-9.974-8.743-19.005-18.994-20.005m-71.663 23.752c7.451 1.2 13.195-4.575 12.618-12.953-.626-8.513-7.476-16.104-15.086-16.828-7.354-.737-12.577 5.323-11.797 13.4.736 7.932 7.029 15.238 14.265 16.381m95.836-96.92c10.218-.46 22.023-2.836 26.27-5.294 4.307-2.445-.673-4.036-10.938-3.536-10.177.468-21.773 2.828-25.965 5.27-4.227 2.4.511 4.02 10.633 3.56m72.447 27.06c3.152-3.307 6.346-13.713 7.148-23.49.9-9.973-.95-15.769-4.207-12.643-3.303 3.166-6.649 14.197-7.42 24.356-.725 9.934 1.324 15.132 4.48 11.777m-168.569 80.222c-6.831-1.328-11.67 3.976-10.994 11.678.656 7.586 6.464 15.066 13.187 16.757 6.877 1.778 12.23-3.176 11.716-11.167-.548-8.121-6.866-15.908-13.91-17.268" fill="#FFF"/><mask id="b" fill="#fff"><use xlink:href="#a"/></mask><path d="M66.776 126.837c.052.546.1 1.075.152 1.593l5.032 47.426c1.225 10.856 7.729 20.254 16.055 26.532-31.287 6.536-53.886 4.454-60.573-7.822-7.904-14.494 8.092-39.935 39.334-67.729m23.351-79.101c13.08-7.03 26.64-15.704 37.914-20.604 12.598-3.973 25.761-7.333 37.807-7.946 49.127-2.894 58.488-2.982 60.29-3.085 1.249-.123 18.358-.908 18.907-.951 19.496-1.505 27.245 1.118 31.056 2.48 12.86 9.27 12.86 21.249 11.23 41.917-1.918 14.147-.852 29.457-2.654 45.185-1.686 1.37-6.237 3.36-7.991 4.73.465-2.25.819-4.535 1.03-6.764.791-8.889-1.074-13.594-4.253-10.278-3.21 3.371-6.452 13.61-7.144 22.614-.072.88-.103 1.617-.111 2.42a458.316 458.316 0 0 1-17.106 12.01c-.37-6.241-2.577-8.9-5.636-5.744-2.312 2.448-4.496 7.572-5.944 13.34-10.318 6.556-21.286 13.033-32.746 19.306-35.897 19.602-70.891 33.928-100.308 42.041-21.151-11.484-30.949-21.81-30.949-73.994C73.38 93.94 57.647 57.6 90.127 47.736m182.008-35.847c.103.012.207.056.338.064h-.438c.02-.008.072-.052.1-.064m60.723 15.872c8.243 15.083-9.583 42.203-43.634 71.454 1.97-22.798 3.405-39.413 3.107-37.244.875-14.804 4.34-30.321-2.82-40.934a23.214 23.214 0 0 0-2.415-3.005c24.452-4.24 40.579.23 45.762 9.729m-54.164 124.88c-5.624 26.647-24.79 38.115-23.08 39.357 0 0-6.635 10.366-15.387 21.389-7.637 13.506-23.796 18.988-47.648 11.663-19.317-8.395-49.629-11.297-74.67-20.628 13.855-4.805 28.427-10.613 43.428-17.312.358 8.503 7.749 17.033 16.834 19.259 9.48 2.308 17.336-2.974 17.245-12.038-.048-7.098-4.993-14.096-11.747-17.75a753.567 753.567 0 0 0 25.061-13.001c9.356-5.108 18.398-10.362 27.177-15.649-.023.008-.023.04-.023.092-.394 9.16 2.287 13.077 5.89 9.004 2.722-3.049 5.252-9.828 6.525-16.846 11.36-7.293 24.723-16.118 34.668-23.467-1.416 11.903-2.506 25.791-4.273 35.926m-176.446 56.945c1.158.31 2.303.585 3.46.768 28.726 8.09 55.517 15.645 78.45 22.09 22.17 9.438 50.174 2.933 57.084-11.935a5045.656 5045.656 0 0 1 13.589-17.041c-2.8.433 32.404-28.61 31.402-70.177a6252.2 6252.2 0 0 1 1.841-20.851c51.801-39.684 80.88-78.254 69.873-98.432-9.046-16.572-40.706-17.814-86.79-5.1-1.978-.206-19.385.176-20.734.244-1.754.123-34.76 2.066-83.247 4.928-12.232.64-25.737 2.038-39.652 6.126-14.742 5.744-25.479 13.622-39.167 20.784-6.38 3.483-13.553 6.966-20.172 14.25-4.881 7.954-6.779 17.134-5.935 25.37.735 11.81 2.048 23.092 3.281 34.45-47.564 37.824-73.74 73.946-63.225 93.212 9.71 17.842 48.567 17.074 99.942 1.314" fill="#FFF" mask="url(#b)"/><path d="M266.364 162.572c2.925-3.478 5.787-12.402 6.473-20.13.736-7.83-1.085-11.6-4.085-8.172-3.019 3.436-6.038 12.837-6.633 20.76-.63 7.782 1.308 11.105 4.245 7.542m-24.985 5.105c-3.662 4.152-7 14.678-7.344 23.214-.371 8.326 2.237 11.478 5.8 7.212 3.458-4.177 6.638-14.103 7.103-22.364.49-8.443-1.988-12.17-5.56-8.062M138.473 42.936c8.85-.398 19.235-2.482 23.08-4.663 3.878-2.177-.323-3.62-9.221-3.2-8.895.43-19.082 2.534-22.895 4.658-3.805 2.165.198 3.595 9.036 3.205m18.044-11.011c8.852-.435 19.232-2.529 23.06-4.757 3.841-2.188-.372-3.56-9.317-3.068-8.852.438-19.075 2.577-22.848 4.724-3.76 2.127.233 3.523 9.105 3.1m-39.451 24.001c9.356-.44 20.328-2.791 24.403-5.26 4.091-2.462-.307-4.064-9.754-3.578-9.392.457-20.198 2.808-24.198 5.252-4.009 2.398.185 4.038 9.549 3.586m-15.694 52.044c7.453.542 13.21-6.002 12.58-14.736-.613-8.842-7.516-16.148-15.128-16.233-7.358 0-12.514 6.806-11.749 15.178.777 8.234 7.085 15.27 14.297 15.79" fill="#FFF"/></g></svg>