<svg width="25" height="25" xmlns="http://www.w3.org/2000/svg"><g fill="#ACB8CE" fill-rule="nonzero"><path d="M12.393 0C5.559 0 0 5.56 0 12.393c0 6.833 5.56 12.393 12.393 12.393 6.833 0 12.393-5.56 12.393-12.393C24.786 5.559 19.226 0 12.393 0zm0 22.149c-5.38 0-9.756-4.377-9.756-9.756 0-5.38 4.377-9.756 9.756-9.756 5.38 0 9.756 4.376 9.756 9.756s-4.377 9.756-9.756 9.756z"/><path d="M18.852 12.01h-5.57V5.314a1.02 1.02 0 0 0-2.04 0v7.717c0 .563.456 1.02 1.02 1.02h6.59a1.02 1.02 0 0 0 0-2.04z"/></g></svg>