<svg width="25" height="18" xmlns="http://www.w3.org/2000/svg"><path d="M12.481 10.653h.005a.958.958 0 0 0 .524-.154l.04-.026c.01-.006.019-.01.028-.017l.474-.393L24.873.721a.133.133 0 0 0-.105-.054H.132a.128.128 0 0 0-.082.03l11.845 9.762c.149.124.362.194.586.194zM0 1.99V15.84l8.485-6.855L0 1.99zm16.423 7.04l8.476 6.812V2.037L16.423 9.03zm-2.694 2.224a1.96 1.96 0 0 1-1.244.43c-.466 0-.908-.152-1.245-.428L9.297 9.653 0 17.163v.023c0 .072.061.132.133.132h24.635c.07 0 .131-.06.131-.132v-.022L15.611 9.7l-1.882 1.554z" fill="#ACB8CE" fill-rule="nonzero"/></svg>