<svg width="25" height="26" xmlns="http://www.w3.org/2000/svg"><path d="M24.988 20.063c.053.406-.07.76-.37 1.06l-3.52 3.495a1.981 1.981 0 0 1-.622.45 2.569 2.569 0 0 1-.754.239c-.018 0-.071.004-.16.013a3.601 3.601 0 0 1-.343.013c-.336 0-.878-.057-1.628-.172-.75-.115-1.667-.397-2.752-.847-1.086-.45-2.316-1.126-3.692-2.026-1.377-.9-2.841-2.137-4.394-3.708-1.235-1.218-2.258-2.383-3.07-3.496-.811-1.112-1.464-2.14-1.958-3.085C1.23 11.055.86 10.2.613 9.43.366 8.662.198 8 .11 7.444c-.088-.556-.123-.993-.106-1.31.018-.319.027-.495.027-.53.035-.248.115-.5.238-.755.124-.256.274-.464.45-.623L4.239.704c.247-.247.53-.37.847-.37.23 0 .432.066.609.198.176.132.326.296.45.49l2.831 5.376c.16.282.203.591.133.927-.07.335-.22.618-.45.847L7.362 9.47a.442.442 0 0 0-.093.172.654.654 0 0 0-.04.199c.071.37.23.794.477 1.27.212.425.538.941.98 1.55.44.61 1.067 1.311 1.878 2.106.794.812 1.5 1.443 2.118 1.893.617.45 1.133.781 1.548.993.414.212.732.34.953.384l.33.066a.63.63 0 0 0 .172-.04.442.442 0 0 0 .172-.092l1.509-1.536a1.62 1.62 0 0 1 1.112-.424c.3 0 .538.053.714.16h.026l5.108 3.018c.371.23.591.521.662.874z" fill="#ACB8CE" fill-rule="nonzero"/></svg>