<svg width="15" height="13" xmlns="http://www.w3.org/2000/svg"><path d="M13.605 4.114c-.47 0-.85.386-.85.859s.38.858.85.858a.855.855 0 0 0 .85-.858.855.855 0 0 0-.85-.859zm-12.209 0c-.47 0-.85.386-.85.859s.38.858.85.858c.469 0 .85-.385.85-.858a.855.855 0 0 0-.85-.859zm9.682-1.561c-.697 0-1.263.573-1.263 1.278a1.27 1.27 0 0 0 1.263 1.277c.697 0 1.265-.573 1.265-1.277s-.568-1.278-1.265-1.278zM15 10.323h-1.44v-2.68c0-.46-.134-.887-.349-1.26a1.4 1.4 0 0 1 .394-.064c.768 0 1.395.634 1.395 1.412v2.592zM3.922 2.553c-.698 0-1.265.573-1.265 1.278 0 .704.567 1.277 1.265 1.277A1.27 1.27 0 0 0 5.184 3.83c0-.704-.566-1.278-1.262-1.278zM1.396 6.319c.138 0 .266.027.393.064-.217.373-.349.8-.349 1.26v2.68H0V7.73c0-.777.627-1.41 1.396-1.41zM7.5 0C6.469 0 5.63.847 5.63 1.889c0 1.041.839 1.89 1.869 1.89s1.87-.849 1.87-1.89A1.884 1.884 0 0 0 7.498 0zm5.599 11.32h-2.206V7.243c0-.56-.146-1.082-.383-1.55.18-.053.37-.091.569-.091 1.113 0 2.02.914 2.02 2.042v3.676zM4.106 7.243v4.077H1.903V7.644c0-1.126.905-2.042 2.02-2.042.199 0 .387.038.567.092a3.416 3.416 0 0 0-.384 1.55zm.462 5.257h5.861V7.243c0-1.633-1.315-2.962-2.93-2.962-1.617 0-2.93 1.329-2.93 2.962V12.5z" fill="#FF2944"/></svg>