<svg width="40" height="40" xmlns="http://www.w3.org/2000/svg"><path d="M19.86 0C8.91 0 0 8.91 0 19.86c0 10.951 8.91 19.862 19.86 19.862 10.951 0 19.862-8.91 19.862-19.861S30.812 0 19.86 0zm8.86 15.315c.01.197.014.395.014.594 0 6.04-4.596 13.004-13.007 13.004A12.93 12.93 0 0 1 8.72 26.86a9.26 9.26 0 0 0 1.09.064 9.175 9.175 0 0 0 5.678-1.957 4.576 4.576 0 0 1-4.27-3.175 4.608 4.608 0 0 0 2.064-.077 4.572 4.572 0 0 1-3.667-4.482l.001-.058c.616.342 1.32.548 2.07.571a4.568 4.568 0 0 1-2.033-3.804c0-.838.225-1.624.618-2.299a12.98 12.98 0 0 0 9.422 4.778 4.566 4.566 0 0 1-.118-1.043 4.571 4.571 0 0 1 7.907-3.128 9.125 9.125 0 0 0 2.904-1.11 4.592 4.592 0 0 1-2.012 2.53 9.088 9.088 0 0 0 2.625-.719 9.195 9.195 0 0 1-2.278 2.363z" fill="#13377C" fill-rule="nonzero"/></svg>