<?xml version="1.0" standalone="no"?>
<!DOCTYPE svg PUBLIC "-//W3C//DTD SVG 20010904//EN"
 "http://www.w3.org/TR/2001/REC-SVG-20010904/DTD/svg10.dtd">
<svg version="1.0" xmlns="http://www.w3.org/2000/svg"
 width="512.000000pt" height="512.000000pt" viewBox="0 0 512.000000 512.000000"
 preserveAspectRatio="xMidYMid meet">
<metadata>
Created by potrace 1.11, written by Peter Selinger 2001-2013
</metadata>
<g transform="translate(0.000000,512.000000) scale(0.100000,-0.100000)"
fill="#000000" stroke="none">
<path d="M0 2560 l0 -2560 2560 0 2560 0 0 2560 0 2560 -2560 0 -2560 0 0
-2560z m4679 1579 c203 -33 320 -131 329 -277 6 -81 -11 -156 -53 -249 -116
-251 -401 -568 -806 -892 l-116 -93 -7 -71 c-3 -40 -11 -140 -16 -222 -5 -83
-16 -182 -24 -220 -43 -206 -156 -418 -336 -635 -100 -120 -230 -287 -268
-341 -90 -133 -255 -195 -490 -187 -107 4 -142 10 -222 36 -233 76 -1137 323
-1165 319 -16 -2 -109 -25 -206 -50 -626 -163 -1043 -131 -1145 88 -45 95 -29
225 43 370 120 237 425 572 777 851 l39 31 -22 219 c-25 262 -26 355 -5 437
34 133 100 211 250 298 88 51 298 170 415 235 165 92 289 130 514 158 114 15
1141 77 1495 92 137 5 189 12 305 39 119 29 251 52 380 68 67 9 274 6 334 -4z"/>
<path d="M3525 3955 c-5 -2 -134 -9 -285 -15 -416 -17 -937 -48 -1010 -60 -94
-16 -288 -66 -365 -95 -69 -25 -112 -48 -336 -176 -75 -43 -174 -95 -220 -117
-47 -21 -101 -53 -122 -71 -45 -40 -93 -136 -108 -216 -13 -70 -6 -248 16
-405 8 -58 19 -213 25 -345 12 -299 25 -421 55 -539 50 -201 137 -316 318
-421 l48 -27 62 17 c409 115 1005 377 1467 647 280 164 269 155 294 224 27 74
61 130 84 139 21 8 52 -28 52 -61 0 -13 4 -24 8 -24 11 0 178 115 210 143 15
14 22 32 22 57 0 89 71 291 107 304 33 13 46 -17 45 -108 0 -47 -3 -95 -7
-106 -8 -26 0 -24 55 9 45 27 45 28 52 97 13 134 32 561 32 724 1 149 -2 171
-22 222 -32 79 -100 152 -161 173 -73 24 -277 43 -316 30z m-17 -111 c94 -26
-107 -89 -318 -100 -128 -7 -182 4 -160 31 37 45 382 94 478 69z m-931 -41
c11 -33 -154 -74 -322 -80 -130 -5 -167 4 -131 32 22 17 101 41 177 54 78 13
271 9 276 -6z m797 -109 c80 -31 -155 -95 -356 -98 -77 -1 -111 3 -120 12 -25
26 31 50 177 77 73 14 272 19 299 9z m-1060 -20 c77 -30 -148 -94 -329 -94
-111 0 -143 10 -110 35 41 32 203 63 332 64 50 1 98 -2 107 -5z m1627 -151
c27 -84 -13 -332 -69 -423 -54 -88 -86 -56 -85 85 2 172 71 375 128 375 7 0
19 -17 26 -37z m-719 8 c11 -10 9 -15 -6 -26 -64 -47 -409 -94 -503 -69 -53
14 -14 49 82 74 147 37 399 50 427 21z m-1153 -25 c34 -41 -153 -89 -351 -90
-75 -1 -139 2 -144 6 -23 24 64 61 194 83 111 19 286 19 301 1z m1457 -371
c53 -129 -36 -505 -120 -505 -72 0 -67 283 8 446 27 58 58 94 82 94 8 0 22
-16 30 -35z m-1976 -55 c74 -38 122 -127 122 -227 1 -230 -273 -249 -350 -24
-31 90 0 204 67 248 43 29 108 30 161 3z m1009 9 c137 -29 233 -178 202 -314
-16 -66 -54 -120 -110 -153 -38 -22 -58 -27 -116 -27 -59 0 -79 5 -124 30 -97
53 -149 153 -138 261 10 101 72 175 166 200 59 16 60 16 120 3z m-984 -588
c46 -21 101 -79 123 -130 22 -53 21 -138 -4 -185 -28 -54 -75 -79 -138 -72
-168 18 -264 264 -144 372 12 12 30 24 38 27 31 11 86 6 125 -12z m1040 -109
c130 -67 192 -229 132 -343 -31 -58 -106 -99 -182 -99 -63 0 -160 45 -200 92
-110 130 -91 298 40 360 52 24 153 20 210 -10z m-998 -439 c73 -34 132 -134
133 -221 0 -92 -44 -142 -126 -142 -112 0 -217 120 -217 247 0 120 93 171 210
116z"/>
<path d="M4080 3922 c-25 -4 -44 -10 -43 -15 1 -4 17 -37 35 -74 51 -105 51
-151 -3 -782 -10 -124 -17 -226 -15 -228 6 -7 220 194 291 273 147 164 218
263 271 378 74 161 67 273 -24 358 -74 70 -144 90 -322 93 -80 2 -165 0 -190
-3z"/>
<path d="M3939 2555 c-8 -7 -110 -78 -228 -157 l-214 -143 -19 -69 c-30 -108
-72 -176 -109 -176 -23 0 -35 23 -42 78 -3 24 -8 46 -11 49 -2 3 -42 -17 -88
-45 -144 -86 -248 -143 -431 -237 l-178 -92 40 -28 c84 -57 135 -177 112 -262
-20 -72 -90 -123 -172 -123 -43 0 -114 25 -161 58 -52 36 -106 114 -115 166
-3 20 -11 36 -18 36 -6 0 -54 -19 -106 -41 -85 -37 -287 -117 -413 -164 -38
-14 -45 -20 -33 -27 37 -20 222 -70 492 -133 158 -37 334 -83 389 -102 285
-97 423 -106 576 -37 57 25 124 87 187 172 67 89 186 259 191 272 3 8 38 50
79 93 137 147 220 316 247 505 20 131 49 412 44 417 -2 3 -11 -2 -19 -10z
m-103 -241 c11 -44 -3 -196 -25 -265 -63 -199 -144 -171 -108 38 30 179 111
316 133 227z m-376 -440 c32 -83 -12 -306 -76 -391 -68 -89 -106 16 -70 187
37 174 116 284 146 204z"/>
<path d="M923 2332 c-681 -650 -576 -1069 237 -946 52 8 108 17 123 20 l28 6
-59 61 c-63 67 -102 127 -127 197 -9 25 -33 200 -54 398 -21 194 -40 355 -43
357 -2 2 -50 -40 -105 -93z"/>
</g>
</svg>
