<?xml version="1.0" encoding="UTF-8"?>
<svg width="15px" height="12px" viewBox="0 0 15 12" version="1.1" xmlns="http://www.w3.org/2000/svg" xmlns:xlink="http://www.w3.org/1999/xlink">
    <!-- Generator: Sketch 49.3 (51167) - http://www.bohemiancoding.com/sketch -->
    <title>Group</title>
    <desc>Created with Sketch.</desc>
    <defs></defs>
    <g id="Symbols" stroke="none" stroke-width="1" fill="none" fill-rule="evenodd">
        <g id="icon_age" fill="#FF2944" fill-rule="nonzero">
            <g id="Group">
                <g id="001-standing-up-man" transform="translate(4.200000, 1.200000)">
                    <ellipse id="Oval" cx="2.62935" cy="0.9014" rx="1.014075" ry="1"></ellipse>
                    <path d="M2.9826,2.2326 C2.729925,2.187 2.4552,2.189 2.207025,2.241 C0.5211,2.4166 -0.026325,4.1512 0.12825,5.4738 C0.1953,6.0456 1.209375,6.0516 1.14165,5.4738 C1.0854,4.9918 1.109475,4.2644 1.3977,3.7474 C1.3977,4.3758 1.3977,5.0042 1.3977,5.6324 C1.3977,5.6546 1.400175,5.6754 1.4013,5.6968 C1.400625,5.707 1.397925,5.7156 1.397925,5.726 C1.397925,7.2218 1.395,8.717 1.325475,10.2116 C1.29465,10.876 2.453625,10.8734 2.484225,10.2116 C2.538675,9.0402 2.5524,7.8682 2.55555,6.696 C2.61045,6.6992 2.66535,6.6992 2.72025,6.6964 C2.723625,7.8686 2.7369,9.0406 2.7909,10.2116 C2.821725,10.8734 3.9807,10.876 3.94965,10.2116 C3.880125,8.717 3.87765,7.2218 3.87765,5.726 C3.87765,5.6796 3.870675,5.6374 3.8601,5.5968 C3.858525,4.9474 3.830625,4.2974 3.839175,3.6484 C4.184325,4.1678 4.215825,4.96 4.155975,5.4734 C4.088025,6.0508 5.102325,6.045 5.169375,5.4734 C5.32755,4.1234 4.7538,2.3438 2.9826,2.2326 Z" id="Shape"></path>
                </g>
                <g id="001-standing-up-man-copy-2" transform="translate(9.600000, 0.000000)">
                    <ellipse id="Oval" cx="2.592" cy="0.983606557" rx="1.08" ry="1"></ellipse>
                    <path d="M3.05397864,2.5934481 C2.7859767,2.54284377 2.49458724,2.54506326 2.23135827,2.60276995 C0.443167253,2.79764101 -0.137463835,4.72260307 0.0264874835,6.19035057 C0.0976046492,6.82490222 1.17319212,6.83156069 1.10135901,6.19035057 C1.04169696,5.65545393 1.06723231,4.8482261 1.37294067,4.27448841 C1.37294067,4.97185158 1.37294067,5.66921475 1.37294067,6.36635598 C1.37294067,6.3909923 1.3755658,6.41407497 1.37675904,6.43782349 C1.37604309,6.44914288 1.37317932,6.45868668 1.37317932,6.47022802 C1.37317932,8.13018319 1.37007689,9.78947252 1.29633459,11.448096 C1.26363979,12.18541 2.4929167,12.1825246 2.52537286,11.448096 C2.58312573,10.1481418 2.59768327,8.84752176 2.60102434,7.54667977 C2.6592545,7.55023095 2.71748467,7.55023095 2.77571483,7.54712366 C2.77929455,8.84796566 2.7933748,10.1485857 2.85065037,11.448096 C2.88334517,12.1825246 4.11262209,12.18541 4.07968863,11.448096 C4.00594634,9.78947252 4.00332121,8.13018319 4.00332121,6.47022802 C4.00332121,6.4187359 3.99592311,6.3719047 3.98470665,6.32684909 C3.98303611,5.60618129 3.95344373,4.88484765 3.96251236,4.16462375 C4.32859871,4.74102482 4.36200946,5.62016407 4.29852904,6.18990667 C4.22645728,6.83067289 5.3022834,6.82423638 5.37340056,6.18990667 C5.54117025,4.69175218 4.93261733,2.71685164 3.05397864,2.5934481 Z" id="Shape"></path>
                </g>
                <g id="001-standing-up-man-copy" transform="translate(0.000000, 3.600000)">
                    <ellipse id="Oval" cx="2.1" cy="0.7" rx="1" ry="1"></ellipse>
                    <path d="M2.37531672,1.82521216 C2.16687077,1.78984185 1.94023452,1.79139318 1.73550088,1.83172775 C0.344685641,1.9679345 -0.106916316,3.31340277 0.0206013761,4.33929712 C0.0759147272,4.78282228 0.912482759,4.78747627 0.856612562,4.33929712 C0.810208744,3.96542665 0.830069578,3.40120803 1.06784274,3.0001893 C1.06784274,3.4876171 1.06784274,3.9750449 1.06784274,4.46231756 C1.06784274,4.47953732 1.06988451,4.49567115 1.07081259,4.51227038 C1.07025574,4.52018216 1.06802836,4.52685288 1.06802836,4.53491979 C1.06802836,5.6951593 1.06561536,6.8549334 1.00826024,8.0142421 C0.982830947,8.52959384 1.93893521,8.52757711 1.96417889,8.0142421 C2.00909779,7.10562828 2.02042032,6.19654906 2.02301893,5.28731471 C2.06830906,5.28979684 2.11359919,5.28979684 2.15888931,5.28762498 C2.16167354,6.19685933 2.17262484,7.10593855 2.21717251,8.0142421 C2.2426018,8.52757711 3.19870607,8.52959384 3.17309116,8.0142421 C3.11573604,6.8549334 3.11369427,5.6951593 3.11369427,4.53491979 C3.11369427,4.49892894 3.1079402,4.46619589 3.09921628,4.43470389 C3.09791697,3.93098713 3.07490068,3.42680497 3.08195406,2.92339848 C3.36668789,3.32627881 3.39267403,3.94076051 3.34330036,4.33898685 C3.28724455,4.78685574 4.1239982,4.78235689 4.17931155,4.33898685 C4.30979909,3.29183929 3.83648014,1.9114661 2.37531672,1.82521216 Z" id="Shape"></path>
                </g>
            </g>
        </g>
    </g>
</svg>