<?xml version="1.0" encoding="UTF-8"?>
<svg width="361px" height="237px" viewBox="0 0 361 237" version="1.1" xmlns="http://www.w3.org/2000/svg" xmlns:xlink="http://www.w3.org/1999/xlink">
    <!-- Generator: Sketch 49.3 (51167) - http://www.bohemiancoding.com/sketch -->
    <title>symbole - am</title>
    <desc>Created with Sketch.</desc>
    <defs>
        <polygon id="path-1" points="0 0.34632474 360.261158 0.34632474 360.261158 236.853942 0 236.853942"></polygon>
    </defs>
    <g id="Symbols" stroke="none" stroke-width="1" fill="none" fill-rule="evenodd" opacity="0.203747736">
        <g id="footer_v1">
            <g id="footer" transform="translate(-331.000000, -310.000000)">
                <g id="symbole---am" transform="translate(331.000000, 310.000000)">
                    <path d="M225.290159,29.9082809 C234.782524,29.4455607 245.68613,27.3186034 249.596606,25.152762 C253.518908,22.990809 248.930406,21.6220905 239.434098,22.0925875 C230.004805,22.5786381 219.286474,24.7055954 215.39965,26.8558832 C211.54042,28.9906174 215.927879,30.3787779 225.290159,29.9082809" id="Fill-1" fill="#FFFFFF"></path>
                    <path d="M176.268669,113.947 C186.515353,114.718038 195.083701,106.987883 194.999383,96.5333906 C194.894989,85.8732883 185.973307,77.0715867 175.425486,77.0004139 C165.319332,76.9331951 157.65841,85.0627093 158.011744,95.0506242 C158.377123,104.809204 166.41547,113.219456 176.268669,113.947" id="Fill-3" fill="#FFFFFF"></path>
                    <path d="M246.052054,74.0963308 C242.151238,77.8120236 238.496205,89.6693371 238.048245,100.270698 C237.596321,110.579137 240.371292,115.56282 244.192824,111.690635 C247.8875,107.858576 251.29675,96.7756999 251.915172,86.5876394 C252.509808,76.182897 249.917193,70.4608906 246.052054,74.0963308" id="Fill-5" fill="#FFFFFF"></path>
                    <path d="M215.270313,40.9308519 C224.726376,40.5239935 235.607596,38.407547 239.557546,36.2558917 C243.555135,34.0533791 238.942228,32.6332866 229.442497,33.0831781 C220.042012,33.505685 209.311644,35.606483 205.405361,37.7737868 C201.534807,39.9058816 205.929375,41.3377104 215.270313,40.9308519" id="Fill-7" fill="#FFFFFF"></path>
                    <path d="M177.005422,127.09011 C167.13153,126.122247 159.632884,133.065268 160.013896,142.423948 C160.326002,151.570658 168.16918,160.193442 177.75934,161.757221 C187.775099,163.356996 196.088462,156.889908 195.999289,147.095289 C195.938489,137.120696 187.256274,128.089969 177.005422,127.09011" id="Fill-9" fill="#FFFFFF"></path>
                    <path d="M105.341797,150.842441 C112.793212,152.041631 118.537265,146.267316 117.960014,137.88882 C117.333982,129.375762 110.484208,121.784853 102.874252,121.06059 C95.5204004,120.324454 90.296686,126.383725 91.0771943,134.461434 C91.812986,142.392707 98.1058342,149.69866 105.341797,150.842441" id="Fill-11" fill="#FFFFFF"></path>
                    <path d="M201.17847,53.9218891 C211.39558,53.4620872 223.201314,51.0857661 227.448209,48.6280641 C231.754528,46.1825692 226.774727,44.5915734 216.510078,45.0920657 C206.332584,45.5600057 194.736818,47.9200506 190.545387,50.3614764 C186.3183,52.7622118 191.05644,54.3816909 201.17847,53.9218891" id="Fill-13" fill="#FFFFFF"></path>
                    <path d="M273.625326,80.9818881 C276.776504,77.674697 279.970528,67.2691448 280.772929,57.4927655 C281.672709,47.5187614 279.822512,41.7231108 276.566165,44.8488096 C273.263077,48.01484 269.917142,59.045532 269.145902,69.2050615 C268.421403,79.138734 270.470253,84.337477 273.625326,80.9818881" id="Fill-15" fill="#FFFFFF"></path>
                    <path d="M105.056699,161.203904 C98.2256665,159.875934 93.3871795,165.179764 94.0629458,172.881986 C94.7194046,180.467509 100.527134,187.948403 107.250043,189.638546 C114.127414,191.41722 119.479483,186.463492 118.965901,178.47153 C118.417565,170.350796 112.100115,162.564066 105.056699,161.203904" id="Fill-17" fill="#FFFFFF"></path>
                    <g id="Group-21">
                        <mask id="mask-2" fill="white">
                            <use xlink:href="#path-1"></use>
                        </mask>
                        <g id="Clip-20"></g>
                        <path d="M66.7764474,126.837256 C66.8281609,127.382618 66.8758964,127.912057 66.9276099,128.429554 L71.9597311,175.85614 C73.1849433,186.711629 79.6889102,196.110166 88.0147835,202.387799 C56.7281168,208.924181 34.1293179,206.842252 27.4423647,194.565637 C19.5381554,180.071748 35.5335383,154.630812 66.7764474,126.837256 M90.127081,47.7358895 C103.206618,40.7058954 116.767489,32.0318539 128.041031,27.1315578 C140.639235,23.1587752 153.80231,19.7990271 165.847577,19.1859925 C214.975401,16.2919915 224.335544,16.2044152 226.13756,16.1009158 C227.38664,15.9775128 244.495852,15.1933062 245.044811,15.149518 C264.5408,13.6447967 272.289869,16.2681071 276.100756,17.6295216 C288.961505,26.9006747 288.961505,38.8787338 287.330541,59.5467574 C285.413164,73.694322 286.479257,89.004264 284.677241,104.732184 C282.990585,106.10156 278.439797,108.091932 276.685516,109.461308 C277.150938,107.212188 277.504976,104.927241 277.715808,102.698024 C278.507423,93.8090222 276.641759,89.1037826 273.463367,92.4197425 C270.253153,95.7914328 267.011114,106.029907 266.318949,115.03435 C266.247345,115.914094 266.215522,116.650532 266.207566,117.454642 C260.777648,121.463252 255.045406,125.483803 249.102332,129.464547 C248.732381,123.222741 246.524613,120.563604 243.46556,123.720334 C241.154365,126.168491 238.970464,131.291709 237.522486,137.059807 C227.203654,143.616093 216.236414,150.092764 204.775907,156.366416 C168.878783,175.9676 133.884657,190.294299 104.467632,198.407055 C83.316811,186.922608 73.519092,176.596558 73.519092,124.412983 C73.3798634,93.9403867 57.6470259,57.6001735 90.127081,47.7358895 M272.134728,11.8892885 C272.238155,11.9012308 272.341582,11.9450189 272.472855,11.9529804 L272.035279,11.9529804 C272.055169,11.9450189 272.106883,11.9012308 272.134728,11.8892885 M332.85831,27.7605154 C341.100646,42.843555 323.275401,69.9643648 289.224051,99.2148727 C291.193142,76.417151 292.629186,59.801525 292.330839,61.9710305 C293.20599,47.1666431 296.670794,31.6497024 289.510464,21.0370386 C288.738739,19.894565 287.927235,18.9073404 287.095841,18.0315767 C311.54837,13.7920842 327.675026,18.2624599 332.85831,27.7605154 M278.694387,152.64044 C273.069549,179.287541 253.903731,190.756065 255.614255,191.998057 C255.614255,191.998057 248.979015,202.363915 240.2275,213.386595 C232.589814,226.89326 216.431334,232.374745 192.579478,225.050176 C173.262497,216.654786 142.950431,213.752824 117.909164,204.42196 C131.764403,199.617201 146.335676,193.809296 161.336569,187.109703 C161.694585,195.612573 169.085637,204.143308 178.171301,206.368543 C187.650783,208.677375 195.507257,203.394928 195.415764,194.330773 C195.368029,187.233106 190.423423,180.234958 183.668844,176.580635 C191.935048,172.492411 200.308657,168.145438 208.730001,163.579525 C218.086166,158.47223 227.128073,153.217648 235.907434,147.93122 C235.883566,147.939181 235.883566,147.971027 235.883566,148.022777 C235.489748,157.182469 238.170894,161.099521 241.774927,157.02722 C244.495852,153.97797 247.025836,147.198763 248.298783,140.180711 C259.659841,132.887987 273.021814,124.062678 282.966717,116.714224 C281.550563,128.616649 280.460602,142.505465 278.694387,152.64044 M102.247929,209.584985 C103.405516,209.895483 104.551169,210.170154 105.708756,210.353268 C134.433615,218.44214 161.225186,225.997593 184.158133,232.442418 C206.327312,241.880762 234.332161,235.376226 241.24188,220.508147 C249.870078,209.648677 254.830596,203.466581 254.830596,203.466581 C252.030111,203.900482 287.23507,174.856973 286.232624,133.290043 C286.84523,126.240145 287.465792,119.178305 288.07442,112.438905 C339.875434,72.7548664 368.954332,34.1854365 357.947312,14.0070444 C348.901428,-2.56479345 317.240833,-3.80678562 271.15615,8.90771116 C269.179103,8.70071247 251.771544,9.0828639 250.423015,9.15053655 C248.668734,9.27393962 215.663588,11.2165428 167.176216,14.0786978 C154.943985,14.7195976 141.438806,16.1168388 127.523896,20.205063 C112.781571,25.9492768 102.045053,33.8271695 88.3568882,40.9885282 C81.976238,44.4716793 74.8039736,47.9548304 68.1846457,55.2395922 C63.3036871,63.193119 61.4061994,72.372715 62.2495273,80.6088746 C62.9854501,92.4197425 64.2981774,103.701171 65.5313455,115.058234 C17.9668606,152.883265 -8.20812562,189.004538 2.30562645,208.271339 C12.0158303,226.113034 50.8725576,225.344751 102.247929,209.584985" id="Fill-19" fill="#FFFFFF" mask="url(#mask-2)"></path>
                    </g>
                    <path d="M266.363852,162.571834 C269.288955,159.093831 272.151405,150.169803 272.83667,142.441339 C273.57284,134.61195 271.751993,130.84282 268.75249,134.270361 C265.733408,137.705665 262.714326,147.107142 262.119124,155.029692 C261.48868,162.8125 263.427002,166.135235 266.363852,162.571834" id="Fill-22" fill="#FFFFFF"></path>
                    <path d="M241.378654,167.676556 C237.71715,171.829263 234.378119,182.354857 234.035235,190.891203 C233.663778,199.216876 236.272141,202.368882 239.835679,198.102735 C243.293087,193.925719 246.472922,183.999735 246.938264,175.738885 C247.428097,167.295722 244.950356,163.568414 241.378654,167.676556" id="Fill-24" fill="#FFFFFF"></path>
                    <path d="M138.472897,42.9359298 C147.322968,42.5378717 157.707966,40.4541597 161.553364,38.2729641 C165.431077,36.0958303 161.230222,34.6538853 152.331679,35.0722525 C143.437177,35.5028051 133.250103,37.6068262 129.437019,39.7311563 C125.632014,41.8961047 129.634944,43.3258642 138.472897,42.9359298" id="Fill-26" fill="#FFFFFF"></path>
                    <path d="M156.516824,31.9247132 C165.369096,31.4904378 175.748865,29.3961749 179.577633,27.1679765 C183.418429,24.9803647 179.204779,23.6085413 170.260296,24.0996378 C161.408025,24.5379719 151.184613,26.67688 147.411974,28.8239053 C143.651362,30.9506375 147.644506,32.3468127 156.516824,31.9247132" id="Fill-28" fill="#FFFFFF"></path>
                    <path d="M117.065967,55.9248645 C126.422203,55.4850833 137.3943,53.133945 141.469426,50.6644041 C145.560316,48.2033206 141.162018,46.6006562 131.715136,47.0869528 C122.323431,47.5436487 111.51686,49.8947869 107.516616,52.3389558 C103.50849,54.7366094 107.701849,56.3773318 117.065967,55.9248645" id="Fill-30" fill="#FFFFFF"></path>
                    <path d="M101.371854,107.968542 C108.82533,108.511309 114.582852,101.967304 113.952813,93.2329822 C113.338625,84.3908764 106.435938,77.0846871 98.8239623,77 C91.4655871,77 86.3103657,83.8057653 87.0751295,92.1782425 C87.8517808,100.412141 94.1600917,107.448871 101.371854,107.968542" id="Fill-32" fill="#FFFFFF"></path>
                </g>
            </g>
        </g>
    </g>
</svg>