<?xml version="1.0" encoding="utf-8"?>
<!-- Generator: Adobe Illustrator 21.1.0, SVG Export Plug-In . SVG Version: 6.00 Build 0)  -->
<svg version="1.1" id="Calque_1" xmlns="http://www.w3.org/2000/svg" xmlns:xlink="http://www.w3.org/1999/xlink" x="0px" y="0px"
	 viewBox="0 0 539 354" style="enable-background:new 0 0 539 354;" xml:space="preserve">
<style type="text/css">
	.st0{fill-rule:evenodd;clip-rule:evenodd;fill:#13377C;}
</style>
<g>
	<path class="st0" d="M336.7,45.8c14.3-0.7,30.8-4,36.7-7.3c5.9-3.3-1-5.4-15.3-4.7c-14.2,0.7-30.4,4-36.3,7.3
		C316,44.4,322.6,46.6,336.7,45.8z"/>
	<path class="st0" d="M263.6,172.6c15.2,1.2,27.9-10.5,27.8-26.2c-0.2-16-13.4-29.3-29-29.4c-15-0.1-26.3,12.1-25.8,27.2
		C237.1,158.8,249,171.5,263.6,172.6z"/>
	<path class="st0" d="M368.1,110.7c-5.9,5.5-11.3,23.1-12,38.8c-0.7,15.3,3.5,22.7,9.2,16.9c5.5-5.7,10.7-22.1,11.6-37.2
		C377.8,113.8,373.9,105.4,368.1,110.7z"/>
	<path class="st0" d="M321.5,62c14.2-0.6,30.5-3.8,36.4-7.1c6-3.3-0.9-5.5-15.2-4.8c-14.1,0.6-30.2,3.8-36,7.1
		C300.9,60.5,307.5,62.7,321.5,62z"/>
	<path class="st0" d="M264,191.6c-14.5-1.4-25.5,8.9-24.9,22.8c0.5,13.6,12,26.4,26.1,28.8c14.7,2.4,26.9-7.2,26.8-21.8
		C291.8,206.5,279.1,193,264,191.6z"/>
	<path class="st0" d="M156.9,225.4c10.9,1.8,19.3-6.9,18.5-19.5c-0.9-12.8-10.9-24.2-22.1-25.3c-10.8-1.1-18.4,8-17.3,20.2
		C137.1,212.7,146.3,223.7,156.9,225.4z"/>
	<path class="st0" d="M300.6,80.2c15.3-0.7,33.1-4.1,39.5-7.7c6.5-3.6-1-5.9-16.4-5.2c-15.3,0.7-32.7,4.1-39,7.7
		C278.3,78.5,285.4,80.8,300.6,80.2z"/>
	<path class="st0" d="M410.6,120.4c4.8-4.9,9.7-20.2,10.9-34.7c1.4-14.7-1.5-23.3-6.4-18.7c-5,4.7-10.2,20.9-11.3,35.9
		C402.7,117.7,405.8,125.4,410.6,120.4z"/>
	<path class="st0" d="M158.1,240.8c-10.5-2-18,5.9-16.9,17.3c1,11.2,10,22.3,20.3,24.8c10.6,2.6,18.8-4.7,18.1-16.5
		C178.7,254.3,169,242.8,158.1,240.8z"/>
	<path class="st0" d="M153,313.4c1.7,0.5,3.5,0.9,5.2,1.2c43,12.1,83,23.4,117.3,33c33.2,14.1,75,4.4,85.4-17.8
		c12.9-16.2,20.3-25.5,20.3-25.5c-4.2,0.7,48.5-42.8,47-104.9c0.9-10.5,1.8-21.1,2.8-31.2c77.5-59.3,121-117,104.5-147.1
		C522-3.7,474.6-5.6,405.7,13.4c-3-0.3-29,0.3-31,0.4c-2.6,0.2-52,3.1-124.5,7.4c-18.3,1-38.5,3-59.3,9.2
		c-22.1,8.6-38.1,20.4-58.6,31.1c-9.5,5.2-20.3,10.4-30.2,21.3c-7.3,11.9-10.1,25.6-8.9,37.9c1.1,17.7,3.1,34.5,4.9,51.5
		C27,228.7-12.2,282.7,3.5,311.5C18.1,338.1,76.2,337,153,313.4z M417,228.3c-8.4,39.8-37.1,57-34.5,58.8c0,0-9.9,15.5-23,32
		c-11.4,20.2-35.6,28.4-71.3,17.4c-28.9-12.6-74.2-16.9-111.7-30.8c20.7-7.2,42.5-15.9,65-25.9c0.5,12.7,11.6,25.5,25.2,28.8
		c14.2,3.5,25.9-4.4,25.8-18c-0.1-10.6-7.5-21.1-17.6-26.5c12.4-6.1,24.9-12.6,37.5-19.4c14-7.6,27.5-15.5,40.7-23.4
		c0,0,0,0.1,0,0.1c-0.6,13.7,3.4,19.5,8.8,13.5c4.1-4.6,7.9-14.7,9.8-25.2c17-10.9,37-24.1,51.9-35.1
		C421.3,192.4,419.6,213.1,417,228.3z M498,41.6c12.3,22.5-14.3,63.1-65.3,106.8c2.9-34.1,5.1-58.9,4.6-55.7
		c1.3-22.1,6.5-45.3-4.2-61.2c-1.2-1.7-2.4-3.2-3.6-4.5C466.1,20.7,490.3,27.4,498,41.6z M407.2,17.9c0.2,0,0.3,0.1,0.5,0.1
		c-0.2,0-0.5,0-0.7,0C407.1,18,407.1,17.9,407.2,17.9z M134.9,71.5C154.5,61,174.8,48,191.6,40.7c18.8-5.9,38.5-11,56.6-11.9
		c73.5-4.3,87.5-4.5,90.2-4.6c1.9-0.2,27.5-1.4,28.3-1.4c29.2-2.2,40.8,1.7,46.5,3.7c19.2,13.9,19.2,31.8,16.8,62.7
		c-2.9,21.2-1.3,44-4,67.5c-2.5,2-9.3,5-12,7.1c0.7-3.4,1.2-6.8,1.5-10.1c1.2-13.3-1.6-20.3-6.4-15.4c-4.8,5-9.7,20.3-10.7,33.8
		c-0.1,1.3-0.2,2.4-0.2,3.6c-8.1,6-16.7,12-25.6,18c-0.6-9.3-3.9-13.3-8.4-8.6c-3.5,3.7-6.7,11.3-8.9,19.9
		c-15.4,9.8-31.8,19.5-49,28.9c-53.7,29.3-106.1,50.7-150.1,62.8c-31.6-17.2-46.3-32.6-46.3-110.6C109.9,140.6,86.3,86.2,134.9,71.5
		z M100,189.7c0.1,0.8,0.2,1.6,0.2,2.4l7.5,70.9c1.8,16.2,11.6,30.3,24,39.7c-46.8,9.8-80.6,6.7-90.6-11.7
		C29.3,269.3,53.3,231.3,100,189.7z"/>
	<path class="st0" d="M400.1,245.9c4.4-5.3,8.8-19,9.8-30.9c1.1-12-1.6-17.8-6.2-12.5c-4.6,5.3-9.2,19.7-10.1,31.8
		C392.7,246.2,395.7,251.3,400.1,245.9z"/>
	<path class="st0" d="M360.9,251.6c-5.3,6.1-10.2,21.6-10.7,34.1c-0.5,12.2,3.3,16.9,8.5,10.6c5-6.1,9.7-20.7,10.4-32.8
		C369.7,251,366.1,245.5,360.9,251.6z"/>
	<path class="st0" d="M207,64c13-0.6,28.3-3.6,34-6.8c5.7-3.2-0.5-5.3-13.6-4.7c-13.1,0.6-28.1,3.7-33.7,6.8
		C188.1,62.4,194,64.5,207,64z"/>
	<path class="st0" d="M234.7,48.4c13.1-0.6,28.5-3.7,34.2-7c5.7-3.2-0.6-5.2-13.8-4.5c-13.1,0.6-28.3,3.8-33.9,6.9
		C215.6,47,221.5,49,234.7,48.4z"/>
	<path class="st0" d="M176.2,82.5c14.1-0.6,30.7-3.9,36.8-7.4c6.2-3.5-0.5-5.7-14.7-5c-14.2,0.6-30.5,4-36.5,7.4
		C155.7,80.8,162.1,83.1,176.2,82.5z"/>
	<path class="st0" d="M152,164.2c11.2,0.8,19.8-9.3,18.9-22.8c-0.9-13.7-11.3-25-22.7-25.1c-11.1,0-18.8,10.5-17.6,23.5
		C131.7,152.5,141.2,163.4,152,164.2z"/>
</g>
</svg>
