<?xml version="1.0" encoding="UTF-8"?>
<svg width="15px" height="13px" viewBox="0 0 15 13" version="1.1" xmlns="http://www.w3.org/2000/svg" xmlns:xlink="http://www.w3.org/1999/xlink">
    <!-- Generator: Sketch 49.3 (51167) - http://www.bohemiancoding.com/sketch -->
    <title>Shape</title>
    <desc>Created with Sketch.</desc>
    <defs></defs>
    <g id="Symbols" stroke="none" stroke-width="1" fill="none" fill-rule="evenodd">
        <g id="icon_players" fill="#FF2944" fill-rule="nonzero">
            <g id="002-group-of-people-in-a-formation">
                <path d="M13.6053287,4.11428793 C13.1357282,4.11428793 12.754396,4.49963317 12.754396,4.97280538 C12.754396,5.44633031 13.1357282,5.83114648 13.6053287,5.83114648 C14.0733591,5.83114648 14.4543425,5.44615395 14.4543425,4.97280538 C14.4543425,4.49963317 14.0731846,4.11428793 13.6053287,4.11428793 Z M1.39641578,4.11428793 C0.92681537,4.11428793 0.545483091,4.49963317 0.545483091,4.97280538 C0.545483091,5.44633031 0.92681537,5.83114648 1.39641578,5.83114648 C1.86479509,5.83114648 2.24595292,5.44615395 2.24595292,4.97280538 C2.24595292,4.49963317 1.86479509,4.11428793 1.39641578,4.11428793 Z M11.0778248,2.552802 C10.3805764,2.552802 9.81503233,3.12596998 9.81503233,3.83140749 C9.81503233,4.53543413 10.3805764,5.10754395 11.0778248,5.10754395 C11.7752477,5.10754395 12.3425362,4.53543413 12.3425362,3.83140749 C12.3425362,3.12667541 11.7752477,2.552802 11.0778248,2.552802 Z M15,10.3228435 L13.5601479,10.3228435 L13.5601479,7.64359181 C13.5601479,7.18329383 13.4263502,6.75597506 13.2114365,6.38332769 C13.3380821,6.3459395 13.4680421,6.31930924 13.6053287,6.31930924 C14.3730521,6.31930924 15,6.95314484 15,7.73124242 L15,10.3228435 Z M3.92200074,2.552802 C3.22422896,2.552802 2.65728939,3.12596998 2.65728939,3.83140749 C2.65728939,4.53543413 3.22422896,5.10754395 3.92200074,5.10754395 C4.61750477,5.10754395 5.18444434,4.53543413 5.18444434,3.83140749 C5.18444434,3.12667541 4.61767921,2.552802 3.92200074,2.552802 Z M1.39641578,6.31930924 C1.53370238,6.31930924 1.66191794,6.34576314 1.78891241,6.38332769 C1.57173094,6.75597506 1.44020096,7.18329383 1.44020096,7.64359181 L1.44020096,10.3228435 L0,10.3228435 L0,7.73124242 C0,6.95296848 0.627296832,6.31930924 1.39641578,6.31930924 Z M7.49860446,0 C6.46939108,0 5.63032051,0.847406812 5.63032051,1.8889853 C5.63032051,2.93038743 6.46851886,3.77885239 7.49860446,3.77885239 C8.52886449,3.77885239 9.3681095,2.93038743 9.3681095,1.8889853 C9.36898172,0.847230452 8.52886449,0 7.49860446,0 Z M13.0976997,11.3199794 L10.8918686,11.3199794 L10.8918686,7.24343238 C10.8918686,6.68278591 10.745511,6.16129123 10.5089664,5.69376252 C10.6895148,5.63979655 10.8793087,5.60152657 11.0779993,5.60152657 C12.1909452,5.60152657 13.0976997,6.51647902 13.0976997,7.64359181 L13.0976997,11.3199794 Z M4.10586361,7.24343238 L4.10586361,11.3199794 L1.90282365,11.3199794 L1.90282365,7.64359181 C1.90282365,6.51753718 2.80835698,5.60152657 3.9230474,5.60152657 C4.12173792,5.60152657 4.30961297,5.63979655 4.48981253,5.69376252 C4.25309345,6.16129123 4.10586361,6.68278591 4.10586361,7.24343238 Z M4.56831186,12.5 L10.4292459,12.5 L10.4292459,7.24343238 C10.4292459,5.6096391 9.11412057,4.28094754 7.49843001,4.28094754 C5.88151835,4.28094754 4.56831186,5.6096391 4.56831186,7.24343238 L4.56831186,12.5 Z" id="Shape"></path>
            </g>
        </g>
    </g>
</svg>